<?xml version="1.0" encoding="UTF-8"?>
<svg id="Layer_1" xmlns="http://www.w3.org/2000/svg" version="1.1" viewBox="0 0 1215.66 437.53">
  <!-- Generator: Adobe Illustrator 29.1.0, SVG Export Plug-In . SVG Version: 2.1.0 Build 142)  -->
  <defs>
    <style>
      .st0 {
        fill: #fff;
      }
    </style>
  </defs>
  <g>
    <path class="st0" d="M503.87,132.27l1.1.24c1.78.4,3.33,1.22,4.74,2.52,1.2,1.11,2.37,2.88,3.46,5.27,1.08,2.38,1.64,5.63,1.64,9.68v47.03l-55.7-67.77-.42-.51h-34.35v3.54l1.1.24c1.78.39,3.33,1.22,4.73,2.52,1.2,1.11,2.37,2.88,3.46,5.27,1.09,2.39,1.64,5.64,1.64,9.68v63.73c0,4.03-.55,7.25-1.63,9.58-1.1,2.35-2.26,4.09-3.47,5.2-1.42,1.32-2.99,2.2-4.8,2.71l-1.02.29v3.3h26.84v-3.32l-1.04-.27c-1.89-.5-3.56-1.41-4.96-2.71-1.2-1.1-2.33-2.84-3.36-5.17-1.04-2.33-1.56-5.56-1.56-9.6v-63.73c0-1.49.11-2.85.32-4.05l.14-.76,74.41,91.62.42.52h4.25v-87.32c0-4.05.53-7.31,1.57-9.7,1.04-2.39,2.17-4.15,3.37-5.25,1.39-1.29,2.99-2.12,4.88-2.51l1.11-.23v-3.55h-26.85v3.54Z"/>
    <path class="st0" d="M633.88,227.54c-1.52-2.17-3.58-5.69-6.13-10.46-2.53-4.73-5.68-11.81-9.35-21.04l-28.44-71.17h-6.15l-28.73,81.94-2.37,6.42c-1.51,4.11-3.25,7.4-5.16,9.78-1.92,2.39-3.78,4.18-5.58,5.35-1.99,1.36-4.09,2.31-6.26,2.82l-1.08.26v3.34h27.18v-3.27l-.98-.31c-1.52-.47-2.73-1.31-3.66-2.51-.75-1.04-1.29-2.69-1.6-4.92-.3-2.23.29-5.39,1.78-9.42l5.05-14.04h32.05l5.87,13.97c1.98,4.5,3.34,8.03,4.06,10.5.86,2.97,1.04,4.49,1.04,5.24,0,.86-.14,1.18-.09,1.21l-.92.3v3.25h34.08v-3.36l-1.09-.25c-.1-.02-1.08-.32-3.53-3.64ZM564.43,194.82l12.75-36.06,14.95,36.06h-27.7Z"/>
    <path class="st0" d="M798.33,229.04c-.43-1.2-.93-3.03-1.46-5.46h0c-.55-2.45-1.05-5.82-1.49-10.08l-9.59-63.71c-.55-4.17-.83-7.56-.83-10.07s.11-4.33.32-5.51c.27-1.7.6-2.06.61-2.08l.41-.41v-2.99h-20.97l-34.85,77.43-41.42-77.09-26.29-.36v3.56l1.1.24c1.76.39,3.25,1.2,4.53,2.48,1.07,1.07,2,2.81,2.77,5.16.78,2.38.95,5.64.53,9.61l-9.58,63.76c-.54,4.07-1.45,7.33-2.71,9.7-1.24,2.34-2.59,4.09-4.02,5.2-1.64,1.33-3.39,2.26-5.21,2.77l-1.02.29v3.3h26.84v-3.3l-1.02-.29c-1.78-.49-3.32-1.39-4.6-2.67-1.08-1.08-2.04-2.8-2.87-5.11-.82-2.3-.97-5.5-.44-9.49,1.79-12,3.36-22.71,4.71-32.14.56-4.02,1.15-7.94,1.76-11.74.61-3.81,1.15-7.24,1.6-10.28l.89-6.07,44.41,82.87.4.74h3.77l36.76-83.35,9.03,59.9c.44,4.2.66,7.58.66,10.02s-.11,4.24-.32,5.42c-.25,1.64-.59,2.2-.72,2.37l-.41.51.52,2.6h29.79v-2.82l-.41-.41c-.23-.23-.67-.84-1.19-2.52Z"/>
    <path class="st0" d="M909.82,227.54c-1.56-2.22-3.62-5.74-6.13-10.46-2.55-4.75-5.71-11.83-9.37-21.04l-28.43-71.17h-6.13l-28.73,81.93-2.37,6.43c-1.51,4.11-3.25,7.4-5.16,9.78-1.92,2.39-3.78,4.18-5.58,5.35-1.99,1.36-4.09,2.31-6.26,2.82l-1.08.26v3.34h27.17v-3.27l-.98-.31c-1.51-.47-2.72-1.31-3.65-2.51-.74-1.04-1.29-2.69-1.6-4.92-.29-2.24.3-5.41,1.78-9.43l5.05-14.04h32.06l5.87,13.96c2,4.56,3.36,8.09,4.05,10.51.86,2.94,1.04,4.47,1.04,5.24,0,.86-.14,1.19-.1,1.21l-.92.31v3.25h34.09v-3.36l-1.1-.24c-.11-.02-1.08-.32-3.53-3.64ZM840.37,194.82l12.75-36.06,14.96,36.06h-27.7Z"/>
    <path class="st0" d="M995.14,179.5c-4.81-2.38-10.1-4.39-15.71-5.98-5.47-1.54-10.61-3.36-15.3-5.4-4.58-2-8.42-4.53-11.42-7.53-2.89-2.89-4.3-6.74-4.3-11.79s1.41-9.16,4.19-12.36c2.78-3.18,6.78-4.74,12.23-4.74,3.18,0,5.81.66,7.81,1.96,2.04,1.33,3.63,3.05,4.74,5.12,1.16,2.15,1.96,4.55,2.38,7.12.43,2.7.65,5.31.65,7.77,0,3.73,1.33,6.95,3.94,9.57,2.62,2.62,5.84,3.94,9.57,3.94s6.76-1.3,9.31-3.86c2.53-2.53,3.95-5.63,4.2-9.21v-.43c0-1.26-.2-2.48-.53-3.48-.61-2.99-1.96-5.95-4.03-8.79-2.06-2.83-4.89-5.35-8.38-7.52-3.47-2.14-7.82-3.86-12.93-5.12-5.08-1.26-11.05-1.89-17.74-1.89s-12.33.79-17.31,2.33c-5.01,1.56-9.29,3.7-12.72,6.37-3.46,2.7-6.11,5.83-7.88,9.3-1.77,3.5-2.67,7.19-2.67,10.98,0,6.47,1.69,11.8,5.03,15.86,3.23,3.93,7.31,7.24,12.1,9.84,4.72,2.56,9.89,4.74,15.37,6.49,5.39,1.73,10.45,3.58,15.01,5.51,4.49,1.9,8.3,4.19,11.31,6.83,2.85,2.49,4.23,5.64,4.23,9.62,0,1.75-.38,3.81-1.11,6.13-.74,2.31-1.88,4.52-3.41,6.57-1.51,2.03-3.44,3.77-5.74,5.19-2.24,1.37-4.88,2.07-7.85,2.07-3.94,0-7.37-.64-10.19-1.9-2.83-1.26-5.19-2.93-7.01-4.95-1.84-2.05-3.22-4.36-4.1-6.85-.89-2.53-1.34-5.03-1.34-7.44,0-3.61-1.33-6.8-3.93-9.47-2.62-2.68-5.84-4.04-9.58-4.04s-6.78,1.29-9.39,3.84c-2.61,2.55-4,5.68-4.12,9.28v.38c0,3.9,1.31,7.55,3.9,10.87,2.52,3.22,6.01,6.06,10.36,8.44,4.3,2.35,9.39,4.24,15.14,5.6,5.74,1.36,12.04,2.05,18.74,2.05,7.52,0,14.2-.99,19.88-2.93,5.66-1.95,10.47-4.45,14.28-7.45,3.83-3.02,6.76-6.39,8.69-10.03,1.95-3.66,2.94-7.28,2.94-10.75,0-6.59-1.69-11.9-5.04-15.8-3.26-3.77-7.39-6.91-12.3-9.33Z"/>
    <path class="st0" d="M1019.76,153.9h3.08l.4-.74c1.47-2.75,3.63-5.39,6.43-7.87,2.36-2.15,5.57-4.29,9.55-6.35,3.66-1.91,8.37-3.32,14.02-4.21.22,1.02.44,2.39.67,4.08.33,2.43.49,6.18.49,11.17v63.73c0,4.19-.14,7.56-.41,10.01-.29,2.51-.57,4.29-.88,5.38-.52,1.68-.85,2.41-1.04,2.72l-.2.33v2.63h30.21v-2.73l-.31-.38c-.19-.24-.58-.89-1.08-2.52-.32-1.17-.59-2.99-.79-5.39-.22-2.5-.34-5.88-.34-10.05v-63.73c0-4.94.17-8.72.5-11.26.22-1.72.45-3.11.67-4.15,5.66.89,10.43,2.31,14.2,4.22,4.08,2.06,7.4,4.21,9.88,6.36,2.78,2.46,5.06,5.18,6.78,8.08l.4.68h3.05v-25.16h-95.28v25.16Z"/>
    <path class="st0" d="M1206.95,209.79h-3.05l-.17,1.2c-.53,3.55-2.05,6.6-4.71,9.35-2.2,2.42-5.63,4.66-10.19,6.64-4.57,1.99-11.08,3-19.37,3h-16.09v-43.95h25c4.03,0,7.25.55,9.58,1.64,2.34,1.09,4.09,2.25,5.17,3.43,1.32,1.53,2.24,3.22,2.73,5.01l.29,1.03h3.31v-26.85h-3.32l-.28,1.05c-.49,1.88-1.39,3.55-2.69,4.95-1.11,1.2-2.84,2.33-5.18,3.37-2.32,1.04-5.55,1.56-9.59,1.56h-25v-47.48h13.06c4.15,0,7.86.28,11.04.82,3.14.54,5.94,1.28,8.3,2.19,2.35.91,4.34,1.95,5.9,3.1,1.6,1.17,3.01,2.37,4.17,3.52,2.5,2.7,4.08,5.86,4.69,9.38l.2,1.16h3.01l8.9-25h-86.96v2.63l.2.33c.19.32.52,1.04,1.03,2.67.31,1.15.6,2.92.88,5.42.27,2.46.41,5.84.41,10.02v63.73c0,4.19-.14,7.56-.41,10.01-.29,2.51-.57,4.29-.88,5.38-.52,1.68-.85,2.41-1.04,2.72l-.2.33v2.63h89.97l-8.71-25Z"/>
    <path class="st0" d="M450.14,281.9v10.35h16.68v9.62h-16.68v11.22h18.87v9.98h-31.33v-51.15h31.33v9.98h-18.87Z"/>
    <path class="st0" d="M537.43,323.07h-12.46l-20.84-31.55v31.55h-12.46v-51.15h12.46l20.84,31.7v-31.7h12.46v51.15Z"/>
    <path class="st0" d="M597.84,271.91v9.98h-13.56v41.17h-12.46v-41.17h-13.55v-9.98h39.57Z"/>
    <path class="st0" d="M631.14,281.9v10.35h16.68v9.62h-16.68v11.22h18.87v9.98h-31.33v-51.15h31.33v9.98h-18.87Z"/>
    <path class="st0" d="M698.76,323.07l-10.64-19.31h-2.99v19.31h-12.46v-51.15h20.91c4.03,0,7.47.7,10.31,2.11,2.84,1.41,4.97,3.34,6.37,5.8,1.41,2.45,2.12,5.19,2.12,8.19,0,3.4-.96,6.44-2.88,9.11-1.92,2.67-4.75,4.56-8.49,5.68l11.8,20.26h-14.06ZM685.13,294.94h7.72c2.28,0,3.99-.56,5.14-1.67s1.71-2.7,1.71-4.74-.57-3.47-1.71-4.59c-1.14-1.11-2.85-1.67-5.14-1.67h-7.72v12.68Z"/>
    <path class="st0" d="M771.55,271.91v9.98h-13.56v41.17h-12.46v-41.17h-13.55v-9.98h39.57Z"/>
    <path class="st0" d="M824.23,314.03h-19.09l-3.06,9.03h-13.04l18.51-51.15h14.43l18.5,51.15h-13.18l-3.06-9.03ZM821.02,304.41l-6.34-18.73-6.27,18.73h12.61Z"/>
    <path class="st0" d="M873.12,271.91v51.15h-12.46v-51.15h12.46Z"/>
    <path class="st0" d="M942.49,323.07h-12.46l-20.84-31.55v31.55h-12.46v-51.15h12.46l20.84,31.7v-31.7h12.46v51.15Z"/>
    <path class="st0" d="M1024.02,271.91v51.15h-12.46v-30.68l-11.44,30.68h-10.06l-11.51-30.75v30.75h-12.46v-51.15h14.72l14.35,35.41,14.21-35.41h14.65Z"/>
    <path class="st0" d="M1060.02,281.9v10.35h16.68v9.62h-16.68v11.22h18.87v9.98h-31.33v-51.15h31.33v9.98h-18.87Z"/>
    <path class="st0" d="M1147.32,323.07h-12.46l-20.84-31.55v31.55h-12.46v-51.15h12.46l20.84,31.7v-31.7h12.46v51.15Z"/>
    <path class="st0" d="M1207.72,271.91v9.98h-13.56v41.17h-12.46v-41.17h-13.55v-9.98h39.56Z"/>
  </g>
  <g>
    <path class="st0" d="M227.66,91.22c-5.9-14.46-17.46-19.59-33.6-17.35,0,3.6,0,7.44,0,11.27,0,7.25,0,14.49,0,21.74l4.7,2.71,37.24,21.5c-.1-1.49-.13-2.99-.28-4.47-1.25-11.99-3.53-24.32-8.06-35.41Z"/>
    <path class="st0" d="M364,205l-114.99-66.39c-3.07,10.19-7.52,20.2-12.99,29.68,0-13.86.72-25.71-.02-37.19l-37.24-21.5-4.7-2.71c.02,36.79.07,73.59-.11,110.38-.09,18.09-7.66,32.14-24.65,39.81-15.64,7.07-30.44,4.66-43.41-6.22-13.5-11.32-17.64-26.29-12.75-42.94,4.88-16.6,17.85-24.89,34.05-28.02,8.8-1.7,17.91-1.82,27.73-2.73v-39.31c-48.85-10.06-94.01,18.22-103.71,64.37-10.3,49.03,22.83,95.14,73.53,100.36,45.16,4.64,88.89-28.78,91.22-81.76.6-13.67.09-27.38.09-41.97h19.49c9.83,64.28-8.92,128.65-87.07,144.25-58.36,11.65-119.48-38.28-120.75-97.88-1.36-63.72,44.43-110.41,108.39-110.5,6.05,0,12.11,0,21.09,0,0-5.92,0-11.73,0-17.57L33.52,14.2C18.62,5.6,0,16.35,0,33.55v381.6c0,17.2,18.62,27.95,33.52,19.35l165.24-95.4,165.24-95.4c14.9-8.6,14.9-30.11,0-38.71Z"/>
    <path class="st0" d="M194.05,85.15c0-3.84,0-7.67,0-11.27,16.14-2.24,27.7,2.89,33.6,17.35,4.52,11.08,6.81,23.42,8.06,35.41.15,1.48.18,2.98.28,4.47l13.01,7.51c10.58-35.11,4.63-72.38-33.97-97.59-12.78-8.35-23.35-19.27-29.26-33.95-.82-2.03-3.06-3.49-6.36-7.07-1.03,2.33-2.13,3.66-2.13,5.01-.08,30.33-.08,60.72-.08,92.15l16.85,9.73c0-7.25-.01-14.49,0-21.74Z"/>
  </g>
</svg>