<?xml version="1.0" encoding="UTF-8"?>
<svg id="Layer_1" xmlns="http://www.w3.org/2000/svg" xmlns:xlink="http://www.w3.org/1999/xlink" version="1.1" viewBox="0 0 375.17 437.52">
  <!-- Generator: Adobe Illustrator 29.1.0, SVG Export Plug-In . SVG Version: 2.1.0 Build 142)  -->
  <defs>
    <style>
      .st0 {
        fill: none;
      }

      .st1 {
        fill: url(#radial-gradient);
      }

      .st2 {
        fill: url(#linear-gradient);
      }
    </style>
    <radialGradient id="radial-gradient" cx="196.42" cy="1300.7" fx="196.42" fy="1300.7" r="389.24" gradientTransform="translate(-8.83 1525.04) scale(1 -1)" gradientUnits="userSpaceOnUse">
      <stop offset="0" stop-color="#eb1d25"/>
      <stop offset=".05" stop-color="#e41b22"/>
      <stop offset=".56" stop-color="#a0080b"/>
      <stop offset=".81" stop-color="#860102"/>
    </radialGradient>
    <linearGradient id="linear-gradient" x1="224.25" y1="1553.55" x2="224.25" y2="1430.43" gradientTransform="translate(-8.83 1525.04) scale(1 -1)" gradientUnits="userSpaceOnUse">
      <stop offset="0" stop-color="#2e3191"/>
      <stop offset="0" stop-color="#2c3191"/>
      <stop offset=".38" stop-color="#14469d"/>
      <stop offset=".72" stop-color="#0553a5"/>
      <stop offset="1" stop-color="#0058a8"/>
    </linearGradient>
  </defs>
  <path class="st0" d="M227.66,91.21c-5.9-14.46-17.46-19.59-33.6-17.35v33.01l4.7,2.71,37.24,21.5c-.1-1.49-.13-2.99-.28-4.47-1.25-11.99-3.53-24.32-8.06-35.41h0Z"/>
  <path class="st1" d="M364,204.99l-114.99-66.39c-3.07,10.19-7.52,20.2-12.99,29.68,0-13.86.72-25.71-.02-37.19l-37.24-21.5-4.7-2.71c.02,36.79.07,73.59-.11,110.38-.09,18.09-7.66,32.14-24.65,39.81-15.64,7.07-30.44,4.66-43.41-6.22-13.5-11.32-17.64-26.29-12.75-42.94,4.88-16.6,17.85-24.89,34.05-28.02,8.8-1.7,17.91-1.82,27.73-2.73v-39.31c-48.85-10.06-94.01,18.22-103.71,64.37-10.3,49.03,22.83,95.14,73.53,100.36,45.16,4.64,88.89-28.78,91.22-81.76.6-13.67.09-27.38.09-41.97h19.49c9.83,64.28-8.92,128.65-87.07,144.25-58.36,11.65-119.48-38.28-120.75-97.88-1.36-63.72,44.43-110.41,108.39-110.5h21.09v-17.57L33.52,14.19C18.62,5.59,0,16.34,0,33.54v381.6c0,17.2,18.62,27.95,33.52,19.35l165.24-95.4,165.24-95.4c14.9-8.6,14.9-30.11,0-38.71h0Z"/>
  <path class="st2" d="M194.05,85.14v-11.27c16.14-2.24,27.7,2.89,33.6,17.35,4.52,11.08,6.81,23.42,8.06,35.41.15,1.48.18,2.98.28,4.47l13.01,7.51c10.58-35.11,4.63-72.38-33.97-97.59-12.78-8.35-23.35-19.27-29.26-33.95-.82-2.03-3.06-3.49-6.36-7.07-1.03,2.33-2.13,3.66-2.13,5.01-.08,30.33-.08,60.72-.08,92.15l16.85,9.73c0-7.25,0-14.49,0-21.74h0Z"/>
</svg>